<svg width="316" height="315" viewBox="0 0 316 315" fill="none" xmlns="http://www.w3.org/2000/svg">
<path d="M58.7065 157.5C58.7065 216.593 106.611 264.497 165.704 264.497C224.797 264.497 272.701 216.593 272.701 157.5C272.701 98.4072 224.797 50.5029 165.704 50.5029C106.611 50.5029 58.7065 98.4072 58.7065 157.5Z" fill="#F6F6F6"/>
<path d="M0.5 147.228C0.5 159.047 10.0809 168.628 21.8995 168.628C33.7181 168.628 43.2989 159.047 43.2989 147.228C43.2989 135.41 33.7181 125.829 21.8995 125.829C10.0809 125.829 0.5 135.41 0.5 147.228Z" fill="#F6F6F6"/>
<path d="M34.7391 75.3263C34.7391 83.3629 41.2541 89.8779 49.2908 89.8779C57.3274 89.8779 63.8424 83.3629 63.8424 75.3263C63.8424 67.2897 57.3274 60.7747 49.2908 60.7747C41.2541 60.7747 34.7391 67.2897 34.7391 75.3263Z" fill="#F6F6F6"/>
<path d="M291.533 201.155C291.533 207.774 296.898 213.139 303.516 213.139C310.135 213.139 315.5 207.774 315.5 201.155C315.5 194.537 310.135 189.171 303.516 189.171C296.898 189.171 291.533 194.537 291.533 201.155Z" fill="#F6F6F6"/>
<path d="M214.128 156.473C213.808 166.251 209.443 173.962 202.052 180.044C195.272 185.631 187.299 188.599 178.86 190.491C170.77 192.207 162.535 193.051 154.27 192.993C143.387 193.051 132.533 193.662 121.737 194.885C106.082 196.631 91.0661 202.189 78.0586 211.122C75.9926 212.548 73.9265 213.945 71.8313 215.283C71.5112 215.516 71.162 215.691 70.7837 215.778C70.4054 215.865 70.0271 215.894 69.6197 215.807C69.2415 215.749 68.8632 215.604 68.5431 215.371C68.223 215.138 67.932 214.905 67.7283 214.585C66.7971 213.188 67.1172 211.646 68.6595 210.569C81.2305 201.665 94.4417 194.186 109.748 191.073C119.846 189.036 130.089 188.192 140.361 187.639C149.207 187.173 158.083 187.551 166.9 186.591C177.812 185.398 188.375 183.099 197.425 176.319C203.216 172.012 207.115 166.367 208.279 159.092C209.531 151.322 205.107 144.542 197.92 143.204C195.039 142.709 192.1 143.204 189.539 144.6C186.978 145.997 184.971 148.238 183.865 150.944C182.73 153.65 182.555 156.648 183.37 159.47C184.156 162.293 185.902 164.766 188.288 166.454L188.899 166.833C190.936 168.142 191.489 169.713 190.499 171.256C189.481 172.798 187.851 172.914 185.814 171.634C182.148 169.335 179.413 165.814 178.045 161.711C176.677 157.579 176.794 153.127 178.365 149.082C179.936 145.037 182.846 141.661 186.629 139.566C190.412 137.471 194.806 136.744 199.026 137.529C207.465 138.955 213.954 146.667 214.157 155.455C214.128 155.775 214.128 156.124 214.128 156.473Z" fill="url(#paint0_linear_1357_16686)"/>
<path d="M86.9031 185.718C92.6066 183.564 98.2519 181.178 104.159 179.491C112.453 177.075 121.008 175.853 129.65 175.795C131.571 175.795 132.735 176.784 132.822 178.443C132.851 178.85 132.822 179.258 132.677 179.636C132.531 180.014 132.328 180.364 132.037 180.655C131.746 180.946 131.396 181.178 131.018 181.324C130.64 181.469 130.232 181.528 129.825 181.469C113.878 181.411 99.2413 186.504 84.8952 192.76C80.5303 194.651 76.1362 196.456 71.7422 198.26C69.7343 199.104 68.1629 198.58 67.4064 196.863C66.6498 195.233 67.4646 193.837 69.5597 192.905C73.43 191.159 77.0965 189.064 79.7737 185.631C80.6467 184.554 81.2869 183.332 81.6652 181.993C82.0435 180.655 82.1308 179.258 81.9271 177.89C81.7234 176.61 81.1123 175.446 80.1811 174.544C79.2499 173.642 78.0277 173.118 76.7473 173.001C75.496 172.914 74.2448 173.263 73.1972 173.962C72.1496 174.66 71.3639 175.678 70.9274 176.872C69.8798 179.84 68.6576 180.771 66.7662 179.985C64.8747 179.229 64.5837 177.483 65.6313 174.718C66.6207 172.041 68.5412 169.859 71.0438 168.549C73.5464 167.24 76.4563 166.92 79.1917 167.647C84.8661 169.073 88.4163 174.66 87.7179 180.858C87.5142 182.401 87.1359 183.914 86.6412 185.369C86.6412 185.514 86.583 185.631 86.5539 185.776L86.9031 185.718Z" fill="url(#paint1_linear_1357_16686)"/>
<path d="M151.796 216.127C144.696 216.302 137.857 217.32 131.776 221.511C131.455 221.743 131.106 221.918 130.728 222.005C130.35 222.092 129.971 222.122 129.564 222.034C129.186 221.976 128.807 221.831 128.487 221.598C128.167 221.394 127.905 221.103 127.673 220.754C126.77 219.386 127.061 217.815 128.604 216.709C132.27 214.148 136.461 212.431 140.855 211.588C151.039 209.434 161.079 209.871 170.74 213.974C176.443 216.389 181.041 220.143 183.253 226.254C186.483 235.187 182.06 244.208 173.33 246.303C167.917 247.613 163.203 246.1 159.449 241.938C155.957 238.068 154.968 233.5 156.336 228.465C156.394 228.087 156.539 227.738 156.772 227.447C156.976 227.127 157.267 226.865 157.587 226.69C157.907 226.487 158.256 226.37 158.634 226.312C159.013 226.254 159.391 226.283 159.74 226.399C160.119 226.487 160.439 226.632 160.759 226.836C161.079 227.039 161.341 227.33 161.515 227.651C161.719 227.971 161.835 228.32 161.923 228.698C161.981 229.076 161.981 229.455 161.894 229.804C161.748 230.502 161.632 231.23 161.574 231.957C161.428 233.616 161.777 235.275 162.592 236.7C163.407 238.155 164.629 239.319 166.084 240.047C167.568 240.833 169.227 241.182 170.915 241.007C172.573 240.833 174.174 240.192 175.454 239.116C178.451 236.613 179.033 233.383 178.306 229.717C177.52 225.905 175.192 223.198 172.02 221.161C166.55 217.64 160.41 216.505 154.037 216.127C153.367 216.069 152.582 216.127 151.796 216.127Z" fill="url(#paint2_linear_1357_16686)"/>
<path d="M154.152 108.837C154.035 108.575 153.919 108.284 153.803 108.022C152.377 105.112 150.776 104.85 148.506 107.178C147.139 108.517 145.684 109.739 144.141 110.845C139.136 114.337 133.549 116.636 127.904 118.847C121.065 121.525 115.158 125.482 111.346 131.971C108.582 136.715 107.447 141.749 109.455 147.161C109.6 148.18 110.008 149.111 110.619 149.926C111.433 151.061 111.346 151.555 109.891 152.021C105.323 153.592 100.754 154.931 95.8361 154.727C95.3996 154.698 94.9631 154.727 94.5557 154.873C94.1483 155.018 93.77 155.222 93.4499 155.513C93.1298 155.804 92.8679 156.153 92.6933 156.531C92.5187 156.91 92.4023 157.346 92.4023 157.783C92.4605 159.412 93.7118 160.343 95.7488 160.431C102.354 160.693 108.494 158.801 114.489 156.211C114.925 155.978 115.42 155.891 115.915 155.92C116.41 155.949 116.875 156.153 117.253 156.444C119.814 158.19 122.841 159.179 125.925 159.325C132.211 159.529 137.245 156.706 141.697 152.603C146.208 148.354 149.729 143.146 152.027 137.355C155.898 128.101 157.149 118.615 154.152 108.837Z" fill="url(#paint3_linear_1357_16686)"/>
<path d="M250.967 199.657C250.967 199.803 250.967 199.977 250.967 200.123C250.85 201.781 250.152 202.218 248.639 201.549C247.736 201.17 246.834 200.879 245.874 200.676C242.819 200.123 239.734 199.948 236.65 200.123C232.896 200.21 229.346 199.541 226.261 197.242C224.02 195.554 222.507 193.401 222.391 190.462C222.274 189.967 222.274 189.414 222.391 188.919C222.536 188.192 222.391 188.017 221.663 188.076C219.219 188.134 216.774 188.628 214.505 189.589C214.301 189.705 214.097 189.763 213.865 189.792C213.632 189.822 213.428 189.792 213.195 189.734C212.992 189.676 212.788 189.56 212.613 189.414C212.439 189.269 212.322 189.094 212.206 188.89C211.915 188.105 212.322 187.406 213.253 186.97C216.338 185.544 219.597 185.195 222.915 185.224C223.176 185.253 223.409 185.195 223.642 185.078C223.875 184.962 224.049 184.787 224.166 184.555C225.039 183.216 226.261 182.168 227.687 181.47C230.597 180.131 233.536 180.451 236.446 181.499C239.414 182.605 242.091 184.351 244.303 186.621C247.998 190.258 250.472 194.448 250.967 199.657Z" fill="url(#paint4_linear_1357_16686)"/>
<path d="M132.997 251.658C133.142 251.541 133.317 251.454 133.462 251.338C135.063 250.115 135.063 249.097 133.375 247.962C132.386 247.293 131.484 246.536 130.64 245.692C127.933 242.986 125.896 239.785 123.889 236.555C121.444 232.627 118.36 229.426 113.966 227.825C110.736 226.661 107.535 226.516 104.45 228.378C103.839 228.582 103.315 228.96 102.879 229.426C102.268 230.066 101.977 230.037 101.511 229.251C100.027 226.603 98.6592 223.926 98.2518 220.87C98.2227 220.608 98.1354 220.346 98.019 220.085C97.9026 219.852 97.6989 219.648 97.4952 219.473C97.2915 219.299 97.0296 219.182 96.7677 219.124C96.5058 219.066 96.2439 219.037 95.9529 219.095C94.9635 219.299 94.5271 220.201 94.7016 221.452C95.3127 225.584 97.146 229.164 99.4158 232.568C99.6195 232.801 99.7359 233.092 99.765 233.412C99.7941 233.732 99.7359 234.023 99.5904 234.314C98.8338 236.118 98.5719 238.068 98.8338 240.018C99.4158 243.917 101.715 246.74 104.741 249.01C107.855 251.308 111.463 252.909 115.246 253.666C121.415 254.946 127.351 254.655 132.997 251.658Z" fill="url(#paint5_linear_1357_16686)"/>
<path d="M200.829 203.353C209.588 203.818 217.765 206.233 225.127 211.151C228.561 213.334 231.413 216.331 233.42 219.852C233.828 220.434 233.973 221.132 233.886 221.831C233.77 222.529 233.42 223.14 232.868 223.577C232.402 224.042 231.762 224.304 231.092 224.304C230.423 224.304 229.783 224.071 229.288 223.606C228.997 223.373 228.764 223.111 228.561 222.82C224.632 216.244 218.405 213.014 211.421 210.831C207.143 209.522 202.72 208.881 198.268 208.94C197.308 209.056 196.348 208.823 195.562 208.299C195.096 207.979 194.718 207.514 194.543 206.961C194.34 206.408 194.34 205.826 194.514 205.273C194.631 204.72 194.922 204.196 195.358 203.818C195.795 203.44 196.348 203.236 196.93 203.207C198.181 203.207 199.519 203.323 200.829 203.353Z" fill="url(#paint6_linear_1357_16686)"/>
<path d="M86.9035 185.718L86.4961 185.777C86.4961 185.631 86.5543 185.515 86.5834 185.369L86.9035 185.718Z" fill="#F7FAFC"/>
<defs>
<linearGradient id="paint0_linear_1357_16686" x1="67.215" y1="176.524" x2="214.118" y2="176.524" gradientUnits="userSpaceOnUse">
<stop stop-color="#4C96D1"/>
<stop offset="1" stop-color="#E5EEF8"/>
</linearGradient>
<linearGradient id="paint1_linear_1357_16686" x1="65.0446" y1="182.981" x2="132.818" y2="182.981" gradientUnits="userSpaceOnUse">
<stop stop-color="#4C96D1"/>
<stop offset="1" stop-color="#E5EEF8"/>
</linearGradient>
<linearGradient id="paint2_linear_1357_16686" x1="127.23" y1="228.581" x2="184.362" y2="228.581" gradientUnits="userSpaceOnUse">
<stop stop-color="#4C96D1"/>
<stop offset="1" stop-color="#E5EEF8"/>
</linearGradient>
<linearGradient id="paint3_linear_1357_16686" x1="111.902" y1="86.1959" x2="133.776" y2="176.709" gradientUnits="userSpaceOnUse">
<stop stop-color="#4C96D1"/>
<stop offset="1" stop-color="#E5EEF8"/>
</linearGradient>
<linearGradient id="paint4_linear_1357_16686" x1="244.164" y1="234.514" x2="226.816" y2="177.943" gradientUnits="userSpaceOnUse">
<stop stop-color="#4C96D1"/>
<stop offset="1" stop-color="#E5EEF8"/>
</linearGradient>
<linearGradient id="paint5_linear_1357_16686" x1="101.394" y1="281.949" x2="117.234" y2="226.132" gradientUnits="userSpaceOnUse">
<stop stop-color="#4C96D1"/>
<stop offset="1" stop-color="#E5EEF8"/>
</linearGradient>
<linearGradient id="paint6_linear_1357_16686" x1="194.375" y1="213.797" x2="233.859" y2="213.797" gradientUnits="userSpaceOnUse">
<stop stop-color="#4C96D1"/>
<stop offset="1" stop-color="#E5EEF8"/>
</linearGradient>
</defs>
</svg>
