<svg width="17" height="11" viewBox="0 0 17 11" fill="none" xmlns="http://www.w3.org/2000/svg">
<path d="M2.12586 6.54342C2.05498 6.73691 1.91145 6.89515 1.72576 6.9845C1.54007 7.07385 1.32686 7.08728 1.13143 7.02193C0.935996 6.95658 0.773747 6.8176 0.679155 6.63453C0.584563 6.45145 0.565084 6.23871 0.624856 6.0415C0.609023 6.089 0.624856 6.03992 0.624856 6.03992C0.653011 5.95274 0.685779 5.86712 0.723023 5.78342C0.786356 5.633 0.879773 5.42558 1.00802 5.18017C1.26927 4.68933 1.67619 4.03542 2.27627 3.3815C3.48752 2.05942 5.47144 0.75 8.50036 0.75C11.5293 0.75 13.5132 2.05942 14.7244 3.3815C15.371 4.0908 15.8953 4.90246 16.2761 5.78342L16.3489 5.96233C16.3537 5.975 16.3695 6.05733 16.3854 6.1365L16.417 6.29167C16.417 6.29167 16.55 6.81892 15.8755 7.04217C15.6769 7.1085 15.4601 7.09343 15.2725 7.00025C15.085 6.90707 14.942 6.74337 14.8749 6.545V6.54025L14.8654 6.51492C14.7858 6.31152 14.6949 6.11276 14.593 5.91958C14.3115 5.3884 13.9635 4.89519 13.5575 4.45183C12.5917 3.39892 11.0131 2.33333 8.50036 2.33333C5.98761 2.33333 4.40902 3.39892 3.44319 4.45183C2.92028 5.02511 2.49504 5.68035 2.18444 6.39142C2.16783 6.43228 2.15199 6.47345 2.13694 6.51492L2.12586 6.54342ZM5.33369 7.08333C5.33369 6.24348 5.66732 5.43803 6.26118 4.84416C6.85505 4.2503 7.6605 3.91667 8.50036 3.91667C9.34021 3.91667 10.1457 4.2503 10.7395 4.84416C11.3334 5.43803 11.667 6.24348 11.667 7.08333C11.667 7.92319 11.3334 8.72864 10.7395 9.3225C10.1457 9.91637 9.34021 10.25 8.50036 10.25C7.6605 10.25 6.85505 9.91637 6.26118 9.3225C5.66732 8.72864 5.33369 7.92319 5.33369 7.08333Z" fill="#818181"/>
</svg>
