<svg width="20" height="19" viewBox="0 0 20 19" fill="none" xmlns="http://www.w3.org/2000/svg">
<path fill-rule="evenodd" clip-rule="evenodd" d="M16.1566 7.94401L15.1147 9.10809C15.0903 9.13632 15.0728 9.17124 15.0639 9.20941C15.0551 9.24757 15.0552 9.28768 15.0643 9.32577L15.5853 11.512C15.6298 11.7081 15.6364 11.9127 15.6045 12.112C15.5726 12.3112 15.503 12.5003 15.4004 12.6666C15.1988 12.9814 14.9261 13.2297 14.6106 13.3858C14.4153 13.4818 14.2087 13.5455 13.9972 13.5751L13.5015 13.6414L6.14105 12.5341L6.98128 16.0831C7.12019 16.6766 7.0454 17.3079 6.77317 17.8396C6.50095 18.3713 6.05332 18.7605 5.52768 18.9223C5.39857 18.9621 5.26629 18.9874 5.13277 18.998H4.98153C4.52417 19 4.07893 18.8324 3.7145 18.5211C3.35007 18.2098 3.08669 17.7722 2.96497 17.2756L2.02391 13.5846C1.86376 13.5669 1.70591 13.5288 1.55338 13.471C1.35606 13.4011 1.17664 13.2785 1.03036 13.1137C0.884084 12.949 0.775267 12.7469 0.713152 12.5246L0.0241621 9.60969C-0.0119031 9.38203 -0.00734978 9.14856 0.0375564 8.92291C0.0824626 8.69725 0.166822 8.48393 0.285712 8.2954C0.404601 8.10686 0.555639 7.94689 0.730011 7.82481C0.904383 7.70274 1.0986 7.621 1.30131 7.58438L4.66224 6.58119H4.72946L10.1574 1.84916L10.5859 1.48006L10.7959 1.30025L11.0312 1.18668C11.2887 1.06222 11.566 0.998047 11.8462 0.998047C12.1264 0.998047 12.4037 1.06222 12.6612 1.18668C12.8213 1.27383 12.9633 1.39816 13.0777 1.55148C13.1921 1.70481 13.2764 1.88366 13.325 2.0763L13.93 4.53695C13.9314 4.57675 13.9433 4.61517 13.9643 4.64724C13.9852 4.6793 14.0143 4.70352 14.0476 4.71677L15.4004 5.03855C15.5197 5.06911 15.6295 5.13535 15.7183 5.23028C15.807 5.32522 15.8713 5.44534 15.9045 5.578L16.3331 7.21528C16.362 7.34357 16.361 7.47812 16.3301 7.60582C16.2991 7.73353 16.2394 7.85004 16.1566 7.94401ZM1.9567 12.2786C2.12078 12.3367 2.29675 12.3367 2.46083 12.2786L5.242 11.4457C5.26816 11.4381 5.29269 11.4246 5.31414 11.406C5.33558 11.3875 5.35349 11.3643 5.36682 11.3378C5.38014 11.3113 5.3886 11.2821 5.3917 11.2519C5.3948 11.2216 5.39246 11.191 5.38484 11.1618L4.67905 8.16169C4.67226 8.13222 4.66029 8.10459 4.64383 8.08044C4.62738 8.05629 4.60678 8.03611 4.58327 8.0211C4.55975 8.00609 4.5338 7.99656 4.50695 7.99307C4.4801 7.98958 4.45291 7.99221 4.42698 8.0008L1.6206 8.8431C1.2509 8.95667 1.12487 9.26898 1.12487 9.26898L1.83906 12.1934C1.87311 12.2299 1.91303 12.2588 1.9567 12.2786ZM5.05715 17.6825H5.20839C5.4473 17.6073 5.65018 17.4289 5.77291 17.1861C5.89564 16.9433 5.9283 16.6557 5.86377 16.386L5.08236 13.0925C5.07557 13.063 5.0636 13.0354 5.04714 13.0112C5.03069 12.9871 5.01009 12.9669 4.98658 12.9519C4.96307 12.9369 4.93711 12.9273 4.91026 12.9238C4.88342 12.9204 4.85622 12.923 4.83029 12.9316L3.35988 13.3764C3.30826 13.394 3.26464 13.4333 3.23805 13.4862C3.21146 13.539 3.20394 13.6014 3.21704 13.6603L4.05728 16.9349C4.12202 17.1701 4.25686 17.373 4.43903 17.5092C4.62121 17.6454 4.83954 17.7066 5.05715 17.6825ZM5.72093 7.54652L6.56117 11.1618C6.57613 11.2148 6.60553 11.2612 6.64519 11.2943L12.7789 12.2407C12.8125 12.2456 12.8466 12.241 12.8782 12.2271C12.9098 12.2133 12.9377 12.1907 12.9595 12.1614C12.9813 12.1322 12.9961 12.0972 13.0028 12.0598C13.0094 12.0224 13.0075 11.9837 12.9973 11.9473L10.8632 2.95646V2.83342L5.78815 7.30992C5.75586 7.33599 5.73189 7.37308 5.71978 7.41569C5.70768 7.45831 5.70808 7.50419 5.72093 7.54652ZM14.3081 12.0987C14.3596 12.0527 14.4049 11.9985 14.4425 11.9378V11.9189C14.455 11.9057 14.4645 11.8894 14.4703 11.8714C14.4762 11.8533 14.4782 11.8339 14.4761 11.8148L12.2243 2.40754C12.2243 2.38861 12.1571 2.34129 12.1571 2.34129C12.096 2.31009 12.0307 2.29089 11.9639 2.28451L14.3081 12.0987ZM14.9131 6.22156L14.3081 6.0796L14.703 7.74527L15.1567 7.24367L14.9131 6.22156ZM16.3294 5.43779C16.3972 5.46865 16.4697 5.48412 16.5428 5.48329C16.6211 5.48126 16.6981 5.46085 16.769 5.42337C16.8399 5.38589 16.9031 5.33216 16.9545 5.26562L18.072 3.96904C18.1756 3.84354 18.2307 3.67681 18.2252 3.50554C18.2197 3.33427 18.154 3.17248 18.0426 3.05576C17.9312 2.93904 17.7831 2.87696 17.6311 2.88318C17.479 2.88939 17.3354 2.96338 17.2318 3.08889L16.1479 4.35707C16.0898 4.41734 16.0435 4.4905 16.0118 4.57194C15.9801 4.65339 15.9637 4.74135 15.9637 4.83027C15.9637 4.91919 15.9801 5.00715 16.0118 5.0886C16.0435 5.17004 16.0898 5.24321 16.1479 5.30347C16.1999 5.36128 16.2616 5.40693 16.3294 5.43779ZM18.6352 9.1934C18.5629 9.19602 18.491 9.17983 18.4251 9.14608L16.8623 8.42681C16.7237 8.3618 16.6135 8.238 16.5553 8.08217C16.4971 7.92633 16.4957 7.75096 16.5514 7.59397C16.579 7.51473 16.6205 7.44256 16.6734 7.38177C16.7263 7.32098 16.7895 7.27281 16.8593 7.24014C16.9291 7.20746 17.004 7.19094 17.0796 7.19157C17.1552 7.1922 17.2299 7.20996 17.2992 7.2438L18.8536 7.96307C18.923 7.99424 18.9861 8.04063 19.0393 8.09954C19.0926 8.15844 19.1349 8.22869 19.1638 8.30619C19.1928 8.38369 19.2077 8.4669 19.2078 8.55097C19.208 8.63505 19.1932 8.7183 19.1645 8.79591C19.1212 8.9138 19.0478 9.01454 18.9535 9.08531C18.8593 9.15609 18.7484 9.19371 18.6352 9.1934ZM16.7458 6.75082C16.8444 6.83622 16.965 6.88307 17.0893 6.88425C17.1408 6.884 17.1919 6.87441 17.2406 6.85586L19.6184 6.14606C19.7542 6.09227 19.8669 5.98276 19.9341 5.83941C20.0013 5.69607 20.018 5.52945 19.9808 5.37285C19.9437 5.21626 19.8554 5.08121 19.7337 4.99471C19.612 4.90821 19.4658 4.87663 19.3244 4.90626L16.9465 5.62553C16.8738 5.64638 16.8054 5.6834 16.7456 5.73442C16.6857 5.78543 16.6355 5.84942 16.598 5.92261C16.5604 5.9958 16.5362 6.07672 16.5268 6.1606C16.5174 6.24448 16.523 6.32963 16.5432 6.41105C16.5761 6.54612 16.6472 6.66542 16.7458 6.75082Z" fill="#424242"/>
</svg>
