<svg width="8" height="16" viewBox="0 0 8 16" fill="none" xmlns="http://www.w3.org/2000/svg">
<path d="M5.7501 8.01254C5.50012 7.73824 5.28218 7.48559 5.05783 7.24017C3.5515 5.54383 2.03876 3.84028 0.532427 2.14394C0.154241 1.71805 0.160651 1.12614 0.532427 0.743562C0.820873 0.447605 1.25034 0.418732 1.56442 0.671377C1.62852 0.721907 1.68621 0.779654 1.73749 0.84462C3.64124 2.9885 5.53858 5.12516 7.44232 7.26904C7.85256 7.73102 7.85256 8.27241 7.44232 8.73439C5.53217 10.8855 3.62842 13.0294 1.71826 15.1805C1.29521 15.6569 0.667035 15.5919 0.372179 15.0433C0.192701 14.7113 0.211931 14.307 0.423458 13.9966C0.468328 13.9317 0.513197 13.8811 0.564476 13.8234C2.24388 11.9322 3.91687 10.0409 5.59627 8.15691C5.63473 8.10638 5.69241 8.07029 5.7501 8.01254Z" fill="#818181"/>
</svg>
