<svg width="184" height="129" viewBox="0 0 184 129" fill="none" xmlns="http://www.w3.org/2000/svg">
<path d="M34 63C34 97.5178 61.9822 125.5 96.5 125.5C131.018 125.5 159 97.5178 159 63C159 28.4822 131.018 0.5 96.5 0.5C61.9822 0.5 34 28.4822 34 63Z" fill="#F6F6F6"/>
<path d="M0 57C0 63.9036 5.59644 69.5 12.5 69.5C19.4036 69.5 25 63.9036 25 57C25 50.0964 19.4036 44.5 12.5 44.5C5.59644 44.5 0 50.0964 0 57Z" fill="#F6F6F6"/>
<path d="M20 15C20 19.6944 23.8056 23.5 28.5 23.5C33.1944 23.5 37 19.6944 37 15C37 10.3056 33.1944 6.5 28.5 6.5C23.8056 6.5 20 10.3056 20 15Z" fill="#F6F6F6"/>
<path d="M170 88.5C170 92.366 173.134 95.5 177 95.5C180.866 95.5 184 92.366 184 88.5C184 84.634 180.866 81.5 177 81.5C173.134 81.5 170 84.634 170 88.5Z" fill="#F6F6F6"/>
<path d="M125.817 85.8118L92.3955 74.8939L100.135 64.02C100.659 63.2606 101.629 62.9194 102.521 63.1946L131.85 72.1314C133.211 72.5496 133.78 74.1345 132.988 75.3011L125.817 85.8118Z" fill="url(#paint0_linear_1548_55690)"/>
<path d="M92.3955 74.8938L92.5739 96.5535L125.817 85.8117L92.3955 74.8938Z" fill="url(#paint1_linear_1548_55690)"/>
<path d="M126.007 85.8667L124.802 117.663C124.802 118.587 124.189 119.402 123.297 119.677L92.585 128.999V96.5535L126.007 85.8667Z" fill="url(#paint2_linear_1548_55690)"/>
<path d="M125.817 85.8118L133.567 97.0048C134.493 98.3475 133.869 100.186 132.307 100.703L103.636 110.157C102.566 110.509 101.384 110.102 100.77 109.166L92.5625 96.5646L125.817 85.8118Z" fill="url(#paint3_linear_1548_55690)"/>
<path d="M92.5738 96.5535V128.999L62.2188 120.238C60.3118 119.699 59.0182 117.971 59.0294 116.012L59.2636 86.373L92.5738 96.5535Z" fill="url(#paint4_linear_1548_55690)"/>
<path d="M92.5737 96.5535L83.0278 109.992C82.7156 110.443 82.1468 110.63 81.6338 110.454L50.8327 100.241C50.0521 99.9764 49.751 99.0409 50.2305 98.3805L59.1296 86.373L92.5737 96.5535Z" fill="url(#paint5_linear_1548_55690)"/>
<path d="M92.395 74.8938L59.1294 86.373L92.5735 96.5535L92.395 74.8938Z" fill="url(#paint6_linear_1548_55690)"/>
<path d="M92.3951 74.8937L84.8342 63.8878C84.2989 63.0623 83.2618 62.7101 82.3139 63.0073L53.9885 72.1972C52.6614 72.6265 52.0704 74.1673 52.7953 75.3559L59.4082 86.3179L92.3951 74.8937Z" fill="url(#paint7_linear_1548_55690)"/>
<path d="M82.7043 81.6294C82.4925 81.6294 82.2806 81.5744 82.0798 81.4643C82.0018 81.4203 80.0502 80.2977 77.9537 78.0194C77.4853 77.5132 77.5299 76.7318 78.0429 76.2695C78.5559 75.8073 79.3477 75.8513 79.816 76.3575C81.6338 78.3276 83.3288 79.3071 83.34 79.3181C83.9422 79.6593 84.1429 80.4187 83.7972 81.0131C83.5519 81.4093 83.1281 81.6294 82.7043 81.6294ZM76.0021 74.3765C75.5449 74.3765 75.11 74.1343 74.887 73.7051C74.0617 72.1313 73.4707 70.4474 73.1138 68.7194C72.98 68.0481 73.4149 67.3987 74.0952 67.2556C74.7755 67.1236 75.4334 67.5528 75.5784 68.2242C75.8795 69.732 76.4036 71.1848 77.1173 72.5605C77.4407 73.1658 77.1954 73.9142 76.582 74.2334C76.4036 74.3325 76.2029 74.3765 76.0021 74.3765ZM74.084 64.7903C74.0171 64.7903 73.9391 64.7793 73.8722 64.7683C73.1919 64.6582 72.7235 64.0199 72.8462 63.3375C73.1696 61.4225 74.1844 59.7826 75.8572 58.4619C76.4036 58.0327 77.1954 58.1207 77.6191 58.66C78.0541 59.1993 77.9649 59.9697 77.4184 60.3989C76.2252 61.3454 75.5338 62.435 75.3107 63.7557C75.2215 64.3611 74.6862 64.7903 74.084 64.7903ZM81.1208 58.4729C80.5855 58.4729 80.0948 58.1317 79.9276 57.6034C79.7157 56.9541 80.0837 56.2497 80.7416 56.0516C82.2471 55.5783 83.9645 55.2151 85.8603 54.962C86.5517 54.8739 87.1762 55.3472 87.2766 56.0296C87.3658 56.7119 86.8862 57.3283 86.1948 57.4273C84.444 57.6585 82.8605 57.9996 81.5 58.4179C81.3661 58.4509 81.2435 58.4729 81.1208 58.4729ZM96.0641 57.1192C96.0418 57.1192 96.0084 57.1192 95.9861 57.1192C95.027 57.0641 93.2539 56.9871 91.0793 57.0531C90.399 57.0751 89.808 56.5358 89.7857 55.8535C89.7634 55.1711 90.3098 54.5988 91.0012 54.5768C93.2762 54.5108 95.1274 54.5878 96.1422 54.6538C96.8336 54.6979 97.3577 55.2812 97.3243 55.9635C97.2797 56.6019 96.7221 57.1192 96.0641 57.1192ZM100.993 56.2937C100.436 56.2937 99.9226 55.9195 99.7777 55.3582C99.5992 54.6979 100.012 54.0155 100.681 53.8504C102.409 53.4102 103.926 52.8929 105.197 52.2986C105.822 52.0124 106.569 52.2765 106.87 52.8929C107.171 53.5092 106.892 54.2466 106.268 54.5438C104.863 55.2041 103.19 55.7764 101.317 56.2497C101.205 56.2827 101.094 56.2937 100.993 56.2937ZM109.781 51.8033C109.491 51.8033 109.201 51.7042 108.967 51.5061C108.443 51.0659 108.376 50.2845 108.833 49.7562C109.725 48.7216 110.16 47.588 110.16 46.2893C110.16 46.2123 110.16 46.1352 110.16 46.0582C110.138 45.3758 110.673 44.8035 111.364 44.7705C112.056 44.7375 112.636 45.2768 112.669 45.9591C112.669 46.0692 112.68 46.1793 112.68 46.2893C112.68 48.1823 112.033 49.8883 110.751 51.3741C110.483 51.6602 110.138 51.8033 109.781 51.8033ZM84.9347 45.706C84.2544 45.706 83.6968 45.1667 83.6745 44.4953C83.6745 44.3413 83.6634 44.1872 83.6634 44.0331C83.6634 42.7564 83.8084 41.5678 84.1095 40.5002C84.2879 39.8398 84.9793 39.4546 85.6484 39.6307C86.3175 39.8068 86.7078 40.4892 86.5294 41.1495C86.2952 41.997 86.1725 42.9655 86.1725 44.0331C86.1725 44.1652 86.1725 44.2972 86.1837 44.4293C86.206 45.1117 85.6484 45.684 84.957 45.695C84.9458 45.706 84.9347 45.706 84.9347 45.706ZM109.915 42.5583C109.469 42.5583 109.045 42.3272 108.811 41.92C107.93 40.3571 106.814 39.0034 106.023 38.1559C105.554 37.6496 105.599 36.8682 106.112 36.406C106.625 35.9437 107.417 35.9767 107.885 36.483C108.766 37.4405 110.015 38.9483 111.019 40.7203C111.353 41.3146 111.13 42.074 110.528 42.4042C110.327 42.5143 110.126 42.5583 109.915 42.5583ZM87.9903 37.9798C87.6223 37.9798 87.2543 37.8147 87.0089 37.5066C86.574 36.9673 86.6744 36.1859 87.2096 35.7676C88.559 34.7111 90.2875 33.9847 92.3394 33.6105C93.0309 33.4894 93.6777 33.9296 93.8003 34.601C93.923 35.2724 93.4769 35.9217 92.7967 36.0428C91.1462 36.3399 89.7969 36.9012 88.7709 37.7047C88.5367 37.8918 88.2579 37.9798 87.9903 37.9798ZM102.543 36.527C102.454 36.527 102.365 36.516 102.287 36.505C100.614 36.1528 99.0082 35.9327 97.4916 35.8337C96.8001 35.7896 96.276 35.2063 96.3206 34.524C96.3652 33.8416 96.9563 33.3243 97.6477 33.3683C99.2758 33.4674 101.016 33.7095 102.8 34.0837C103.48 34.2268 103.915 34.8872 103.77 35.5585C103.647 36.1308 103.123 36.527 102.543 36.527Z" fill="url(#paint8_linear_1548_55690)"/>
<path d="M69.5563 32.6201C68.7869 31.5085 68.798 30.7491 69.5563 30.0777C70.2812 29.4394 71.0507 29.5274 72.032 30.3419C73.2699 31.6516 74.4965 32.9613 75.7344 34.271C76.4927 35.0744 77.251 35.8888 78.0093 36.6923C78.5 37.2316 79.0019 37.7489 79.4702 38.2991C80.0724 39.0145 80.0167 39.895 79.381 40.5113C78.7342 41.1387 77.8309 41.1937 77.1284 40.5774C76.5596 40.0821 76.0578 39.4988 75.5337 38.9595C74.7196 38.101 73.9167 37.2426 73.1026 36.3841C71.9316 35.1404 70.7384 33.8748 69.5563 32.6201Z" fill="url(#paint9_linear_1548_55690)"/>
<path d="M83.4517 32.5429C82.9499 31.3873 82.0243 30.6389 80.9091 30.1106C77.9093 28.5147 74.9541 28.6798 72.0435 30.3417C73.2813 31.6514 74.508 32.9611 75.7458 34.2709C76.5042 35.0743 77.2625 35.8887 78.0208 36.6922C78.2773 36.45 78.6007 36.5491 78.9129 36.5161C80.0504 36.406 81.1879 36.2959 82.225 35.7677C83.5967 35.0743 84.0427 33.9077 83.4517 32.5429Z" fill="url(#paint10_linear_1548_55690)"/>
<path d="M73.1139 36.3949C71.9318 35.1292 70.7497 33.8746 69.5677 32.6089C69.3223 33.0271 69.0547 33.4233 68.854 33.8526C67.8057 36.1528 67.5157 38.4861 68.5417 40.8743C68.7424 41.6558 69.1774 42.3381 69.6569 42.9215C71.0955 44.6604 73.4596 45.0786 74.6417 42.4152C75.1324 41.3036 75.2551 40.1149 75.545 38.9593C74.7309 38.1119 73.9168 37.2534 73.1139 36.3949Z" fill="url(#paint11_linear_1548_55690)"/>
<defs>
<linearGradient id="paint0_linear_1548_55690" x1="102.618" y1="89.7756" x2="117.703" y2="67.2727" gradientUnits="userSpaceOnUse">
<stop stop-color="#ACACAC"/>
<stop offset="1" stop-color="#F1F1F1"/>
</linearGradient>
<linearGradient id="paint1_linear_1548_55690" x1="92.3907" y1="85.7241" x2="125.814" y2="85.7241" gradientUnits="userSpaceOnUse">
<stop stop-color="#ACACAC"/>
<stop offset="1" stop-color="#F1F1F1"/>
</linearGradient>
<linearGradient id="paint2_linear_1548_55690" x1="111.61" y1="142.774" x2="108.423" y2="92.9436" gradientUnits="userSpaceOnUse">
<stop stop-color="#ACACAC"/>
<stop offset="1" stop-color="#F1F1F1"/>
</linearGradient>
<linearGradient id="paint3_linear_1548_55690" x1="102.296" y1="104.046" x2="134.955" y2="86.2117" gradientUnits="userSpaceOnUse">
<stop stop-color="#ACACAC"/>
<stop offset="1" stop-color="#F1F1F1"/>
</linearGradient>
<linearGradient id="paint4_linear_1548_55690" x1="76.5853" y1="138.087" x2="75.6746" y2="100.256" gradientUnits="userSpaceOnUse">
<stop stop-color="#ACACAC"/>
<stop offset="1" stop-color="#F1F1F1"/>
</linearGradient>
<linearGradient id="paint5_linear_1548_55690" x1="69.229" y1="104.358" x2="76.3099" y2="80.9348" gradientUnits="userSpaceOnUse">
<stop stop-color="#ACACAC"/>
<stop offset="1" stop-color="#F1F1F1"/>
</linearGradient>
<linearGradient id="paint6_linear_1548_55690" x1="99.9096" y1="85.7241" x2="68.1227" y2="85.7241" gradientUnits="userSpaceOnUse">
<stop stop-color="#ACACAC"/>
<stop offset="1" stop-color="#F1F1F1"/>
</linearGradient>
<linearGradient id="paint7_linear_1548_55690" x1="72.5692" y1="80.4154" x2="71.738" y2="42.3054" gradientUnits="userSpaceOnUse">
<stop stop-color="#ACACAC"/>
<stop offset="1" stop-color="#F1F1F1"/>
</linearGradient>
<linearGradient id="paint8_linear_1548_55690" x1="93.0912" y1="35.1982" x2="92.6562" y2="60.9827" gradientUnits="userSpaceOnUse">
<stop stop-color="#ACACAC"/>
<stop offset="1" stop-color="#F1F1F1"/>
<stop offset="1" stop-color="#F1F1F1"/>
</linearGradient>
<linearGradient id="paint9_linear_1548_55690" x1="64.871" y1="26.5625" x2="80.3113" y2="41.0897" gradientUnits="userSpaceOnUse">
<stop stop-color="#ACACAC"/>
<stop offset="1" stop-color="#F1F1F1"/>
</linearGradient>
<linearGradient id="paint10_linear_1548_55690" x1="72.041" y1="32.8467" x2="83.7085" y2="32.8467" gradientUnits="userSpaceOnUse">
<stop stop-color="#ACACAC"/>
<stop offset="1" stop-color="#F1F1F1"/>
<stop offset="1" stop-color="#F1F1F1"/>
</linearGradient>
<linearGradient id="paint11_linear_1548_55690" x1="67.8922" y1="38.4758" x2="75.5365" y2="38.4758" gradientUnits="userSpaceOnUse">
<stop stop-color="#ACACAC"/>
<stop offset="1" stop-color="#F1F1F1"/>
</linearGradient>
</defs>
</svg>
