<svg width="200" height="201" viewBox="0 0 200 201" fill="none" xmlns="http://www.w3.org/2000/svg">
<g opacity="0.28">
<path d="M152.735 76.5554H18.2722C10.3338 76.5554 3.89844 69.2129 3.89844 60.1553V57.1345C3.89844 48.0769 10.3338 40.7344 18.2722 40.7344H152.735C160.674 40.7344 167.109 48.0769 167.109 57.1345V60.1553C167.109 69.208 160.674 76.5554 152.735 76.5554Z" fill="#DF7466"/>
<path d="M183.286 102.376H52.3337C43.2761 102.376 35.9336 95.0332 35.9336 85.9756V82.9548C35.9336 73.8972 43.2761 66.5547 52.3337 66.5547H183.286C192.343 66.5547 199.686 73.8972 199.686 82.9548V85.9756C199.686 95.0332 192.343 102.376 183.286 102.376Z" fill="#DF7466"/>
<path d="M153.974 134.061H16.4001C7.34252 134.061 0 126.719 0 117.661V114.64C0 105.583 7.34252 98.2402 16.4001 98.2402H153.969C163.026 98.2402 170.369 105.583 170.369 114.64V117.661C170.374 126.719 163.031 134.061 153.974 134.061Z" fill="#DF7466"/>
<path d="M181.41 160.758H46.948C39.0095 160.758 32.5742 153.415 32.5742 144.357V141.337C32.5742 132.279 39.0095 124.937 46.948 124.937H181.406C189.344 124.937 195.78 132.279 195.78 141.337V144.357C195.784 153.41 189.349 160.758 181.41 160.758Z" fill="#DF7466"/>
</g>
<path d="M100.299 168.376C64.0822 168.376 34.625 137.919 34.625 100.479C34.625 63.044 64.0822 32.5869 100.299 32.5869C136.511 32.5869 165.973 63.044 165.973 100.479C165.973 137.914 136.511 168.376 100.299 168.376Z" fill="#CB1801"/>
<path d="M155.003 100.479C155.003 131.247 131.056 156.188 101.519 156.188C71.9824 156.188 48.0312 131.247 48.0312 100.479C48.0312 69.7162 71.9824 44.7754 101.519 44.7754C131.061 44.7754 155.003 69.7114 155.003 100.479Z" fill="white"/>
<path fill-rule="evenodd" clip-rule="evenodd" d="M160.396 100.5C160.396 133.415 134.052 160.085 101.559 160.085C69.0671 160.085 42.7227 133.415 42.7227 100.5C42.7227 67.604 69.0671 40.915 101.559 40.915C134.052 40.915 160.396 67.604 160.396 100.5ZM102.107 114.422C96.0606 114.422 91.1591 119.408 91.1591 125.559C91.1591 131.71 96.0606 136.696 102.107 136.696C108.153 136.696 113.055 131.71 113.055 125.559C113.055 119.408 108.153 114.422 102.107 114.422ZM91.1634 73.9802L92.9292 106.167C93.0118 107.673 94.2644 108.852 95.7814 108.852H107.338C108.855 108.852 110.107 107.673 110.19 106.167L111.956 73.9802C112.045 72.3533 110.742 70.9854 109.103 70.9854H94.0154C92.3767 70.9854 91.0741 72.3533 91.1634 73.9802Z" fill="#DF7466"/>
<g opacity="0.5">
<path d="M57.6327 88.1696C56.7933 88.1696 55.9337 87.9677 55.1299 87.5431C52.3677 86.0776 51.2435 82.4892 52.617 79.5531C62.6026 58.2708 82.6857 45.0095 105.038 44.9629C108.125 44.9577 110.638 47.6245 110.643 50.9126C110.654 54.1956 108.156 56.8779 105.063 56.8831C86.974 56.9245 70.7162 67.6433 62.6433 84.8763C61.6564 86.9579 59.6827 88.1645 57.6327 88.1696Z" fill="#F9F9F9"/>
<path d="M53.6111 112.963C50.5183 112.968 48.0053 110.301 48.0003 107.013C47.9901 103.352 48.28 99.6861 48.865 96.1183C49.3991 92.8716 52.2733 90.7123 55.3356 91.2664C58.3877 91.836 60.4225 94.917 59.8985 98.1585C59.4254 101.048 59.1864 104.025 59.1915 106.993C59.2017 110.281 56.7039 112.958 53.6111 112.963Z" fill="#F9F9F9"/>
</g>
</svg>
