<svg width="130" height="36" viewBox="0 0 130 36" fill="none" xmlns="http://www.w3.org/2000/svg">
<path d="M50.2323 15.7554C49.6044 15.141 48.8718 14.7827 48.0608 14.6547L48.5317 13.1445C48.5317 13.1445 45.4446 14.1428 44.0318 16.3441C43.8225 16.6256 43.6655 16.9584 43.5609 17.2655C43.5609 17.2655 43.5609 17.2911 43.5347 17.2911C43.4039 17.6751 43.3516 18.0846 43.3516 18.5198C43.3516 19.5948 43.744 20.5419 44.5289 21.3098C45.1568 21.9241 45.8893 22.2824 46.7003 22.4104L46.2294 23.895C46.2294 23.895 49.2904 22.8967 50.7293 20.6954C50.9386 20.4139 51.0956 20.1067 51.2003 19.774C51.2003 19.7484 51.2264 19.7228 51.2264 19.7228C51.3572 19.3388 51.4096 18.9293 51.4096 18.5198C51.4096 17.4447 51.0171 16.5232 50.2323 15.7554Z" fill="#D81922"/>
<path d="M17.9483 8.84375C16.0646 8.84375 14.4425 9.50925 13.1083 10.8147C11.774 12.1201 11.0938 13.707 11.0938 15.55C11.0938 17.3929 11.774 18.9799 13.1083 20.2853C14.4425 21.5907 16.0646 22.2562 17.9483 22.2562C19.832 22.2562 21.454 21.5907 22.7883 20.2853C24.1226 18.9799 24.8028 17.3929 24.8028 15.55C24.8028 13.707 24.1226 12.1201 22.7883 10.8147C21.454 9.50925 19.832 8.84375 17.9483 8.84375Z" fill="#D81922"/>
<path d="M9.85914 23.4608C7.63534 21.2851 6.51036 18.6487 6.51036 15.5515C6.51036 14.2205 6.71966 12.9919 7.13826 11.8145C1.95811 20.4916 2.35054 30.7045 2.35054 30.7045C2.35054 30.7045 5.93479 27.761 18.3096 31.1909C20.0363 31.1141 21.5537 30.4742 22.8095 29.2455C24.1438 27.9401 24.824 26.3532 24.824 24.5358C22.8618 26.0204 20.5595 26.7627 17.9695 26.7627C14.7777 26.7371 12.0829 25.6365 9.85914 23.4608Z" fill="#D81922"/>
<path d="M53.3151 24.3286C51.6669 25.9411 49.7047 26.7346 47.3762 26.7346C45.0739 26.7346 43.0856 25.9411 41.4374 24.3286C39.7891 22.716 38.9781 20.7963 38.9781 18.5182C38.9781 16.2657 39.7891 14.3204 41.4374 12.7078C43.0856 11.0953 45.0478 10.3018 47.3762 10.3018C49.7047 10.3018 51.6669 11.0953 53.3151 12.7078C54.9633 14.3204 55.7743 16.2401 55.7743 18.5182C55.7743 20.7963 54.9633 22.716 53.3151 24.3286ZM36.2311 15.549V26.7346H31.6527V4.36345H36.2311V6.56473C38.1932 5.08014 40.4694 4.36345 43.0856 4.36345V8.8428C41.2019 8.8428 39.5799 9.50831 38.2456 10.8137C36.8851 12.1191 36.2311 13.7061 36.2311 15.549ZM36.1526 0.344826C24.6673 -0.986182 17.1064 1.67583 12.1094 5.92482C13.8361 4.90097 15.7721 4.36345 17.9436 4.36345C20.5598 4.36345 22.8359 5.10574 24.7981 6.56473V4.36345H29.3765V24.4821C29.3765 27.5793 28.2516 30.1901 26.0278 32.3914C25.6876 32.7242 25.3475 33.0313 24.9813 33.3129C25.1382 33.3641 25.3214 33.4409 25.4783 33.492C67.966 47.0069 65.2975 1.49666 65.2975 1.49666C65.2975 1.49666 57.161 3.03244 36.1526 0.344826Z" fill="#D81922"/>
<path d="M0 35.1282L4.39527 35.7169C4.39527 35.7169 7.74406 31.4679 16.1683 33.1573C16.1422 33.1573 5.18015 29.1387 0 35.1282Z" fill="#D81922"/>
<path d="M79.4019 22.3274C79.5588 22.2251 79.6635 22.1739 79.7681 22.1483C79.8728 22.1227 79.9513 22.1227 80.0298 22.1227C80.1867 22.1227 80.3176 22.1995 80.4222 22.353L80.7362 22.7882L81.678 24.0936C81.7303 24.1448 81.7565 24.2216 81.7827 24.2728C81.8088 24.3496 81.835 24.4007 81.835 24.4519C81.835 24.5799 81.7827 24.7079 81.678 24.8103C81.5734 24.9127 81.4425 25.0151 81.2856 25.143C80.5269 25.6806 79.742 26.1157 78.8786 26.4229C78.0153 26.7556 77.0734 26.9092 76.0269 26.9092C75.2421 26.9092 74.4833 26.8068 73.7508 26.602C73.0183 26.3973 72.338 26.1157 71.684 25.7574C71.0561 25.399 70.4543 24.9639 69.9311 24.4519C69.4078 23.94 68.9369 23.3769 68.5707 22.737C68.1782 22.1227 67.8904 21.4316 67.6811 20.7149C67.4718 19.9982 67.3672 19.2303 67.3672 18.4624C67.3672 17.6689 67.4718 16.9266 67.6811 16.2099C67.8904 15.4932 68.1782 14.8021 68.5707 14.1878C68.9631 13.5735 69.4078 12.9848 69.9311 12.4729C70.4543 11.9609 71.0299 11.5258 71.684 11.1675C72.3119 10.8091 73.0183 10.5276 73.7508 10.3228C74.4833 10.118 75.2421 10.0156 76.0269 10.0156C76.9949 10.0156 77.9106 10.1692 78.8001 10.4508C79.6635 10.7323 80.4484 11.1419 81.1286 11.6282L81.1024 11.6026C81.2332 11.7306 81.3379 11.833 81.4687 11.9098C81.5995 12.0121 81.6518 12.1401 81.6518 12.3193C81.6518 12.3705 81.6518 12.4217 81.6518 12.4985C81.6518 12.5753 81.6257 12.6264 81.5733 12.7032L80.5007 14.3158C80.3176 14.5718 80.1344 14.6997 79.9251 14.6997C79.7681 14.6997 79.6112 14.623 79.428 14.4694C78.9833 14.111 78.46 13.8039 77.8583 13.5735C77.2566 13.3431 76.6548 13.2152 76.0269 13.2152C75.3467 13.2152 74.6927 13.3431 74.0909 13.6247C73.4892 13.9063 72.9659 14.2902 72.495 14.7509C72.0503 15.2373 71.684 15.7748 71.4224 16.4147C71.1607 17.0546 71.0299 17.7201 71.0299 18.4112C71.0299 19.1279 71.1607 19.7934 71.4224 20.4333C71.684 21.0732 72.0503 21.6108 72.495 22.0715C72.9398 22.5322 73.4892 22.8906 74.0909 23.1721C74.6927 23.4537 75.3467 23.5817 76.0269 23.5817C76.7856 23.5817 77.4135 23.4537 77.9629 23.1977C78.46 22.993 78.9571 22.6858 79.4019 22.3274Z" fill="#5A005A"/>
<path d="M88.4056 11.963C88.6149 11.6815 88.8766 11.4255 89.1644 11.1951C89.4521 10.9648 89.7661 10.76 90.1324 10.5808C90.4986 10.4016 90.9172 10.2737 91.3882 10.1713C91.8591 10.0689 92.3823 10.0177 92.9579 10.0177C93.9521 10.0177 94.8154 10.1969 95.6003 10.5808C96.359 10.9648 97.0131 11.4511 97.5363 12.091C98.0596 12.7309 98.452 13.4732 98.7136 14.3435C98.9752 15.2137 99.106 16.1096 99.106 17.0823V25.6826C99.106 25.9898 99.0276 26.2202 98.8706 26.3737C98.7136 26.5273 98.5043 26.6041 98.2165 26.6041H96.202C95.8619 26.6041 95.6265 26.5273 95.4956 26.3993C95.3648 26.2714 95.3125 26.041 95.3125 25.7082V17.1079C95.3125 16.6471 95.234 16.212 95.077 15.7769C94.9201 15.3417 94.6846 14.9578 94.3707 14.625C94.0567 14.2923 93.6904 14.0363 93.2718 13.8315C92.8532 13.6268 92.3562 13.5244 91.8329 13.5244C91.4405 13.5244 91.0219 13.6012 90.6294 13.7548C90.237 13.9083 89.8707 14.1131 89.5306 14.3947C89.1905 14.6762 88.9289 15.0346 88.7196 15.4441C88.5103 15.8537 88.4056 16.3144 88.3795 16.8519V25.2731C88.3795 25.4267 88.3795 25.6058 88.3533 25.7594C88.3272 25.913 88.301 26.0666 88.2487 26.1946C88.1963 26.3225 88.1179 26.4249 88.0132 26.5017C87.9086 26.5785 87.7777 26.6297 87.5946 26.6297H85.4231C85.1354 26.6297 84.9261 26.5529 84.7952 26.4249C84.6644 26.2969 84.5859 26.0922 84.5859 25.8618V6.17825C84.5859 5.94788 84.6644 5.76871 84.7952 5.61513C84.9261 5.46155 85.1354 5.38477 85.4231 5.38477H87.5946C87.8039 5.38477 87.987 5.46155 88.144 5.61513C88.301 5.76871 88.4056 5.94788 88.4056 6.15265V11.963Z" fill="#5A005A"/>
<path d="M119.27 25.8641C119.27 26.0176 119.244 26.1456 119.166 26.248C119.087 26.3504 119.009 26.4272 118.904 26.4784C118.799 26.5296 118.669 26.5808 118.538 26.6064C118.407 26.6319 118.25 26.6319 118.119 26.6319H116.471C116.183 26.6319 116 26.5552 115.895 26.4016C115.791 26.248 115.712 26.0688 115.66 25.8385L115.581 24.7378C115.267 25.045 114.927 25.3265 114.561 25.5825C114.195 25.8385 113.776 26.0688 113.358 26.2736C112.939 26.4784 112.468 26.6064 111.997 26.7343C111.526 26.8367 111.029 26.8879 110.506 26.8879C109.721 26.8879 108.962 26.7855 108.23 26.5808C107.497 26.376 106.817 26.0944 106.163 25.7361C105.509 25.3777 104.933 24.9426 104.41 24.4051C103.887 23.8931 103.442 23.33 103.076 22.6901C102.709 22.0758 102.422 21.3847 102.212 20.668C102.003 19.9513 101.898 19.1834 101.898 18.4155C101.898 17.622 102.003 16.8798 102.212 16.1631C102.422 15.4464 102.709 14.7553 103.076 14.1409C103.442 13.5266 103.887 12.9379 104.41 12.426C104.933 11.9141 105.509 11.4789 106.163 11.1206C106.791 10.7622 107.497 10.4807 108.23 10.2759C108.962 10.0711 109.721 9.96875 110.506 9.96875C111.055 9.96875 111.605 10.0199 112.102 10.1479C112.599 10.2759 113.096 10.4295 113.541 10.6343C113.985 10.839 114.404 11.095 114.77 11.4021C115.137 11.7093 115.503 12.0165 115.791 12.3748L115.974 10.9926C116.026 10.839 116.052 10.711 116.105 10.6087C116.157 10.5063 116.183 10.4295 116.262 10.3783C116.314 10.3271 116.392 10.2759 116.471 10.2503C116.549 10.2247 116.68 10.2247 116.811 10.2247H118.119C118.25 10.2247 118.407 10.2503 118.538 10.2759C118.669 10.3015 118.799 10.3527 118.93 10.4039C119.035 10.4551 119.139 10.5319 119.192 10.6343C119.27 10.7366 119.296 10.8646 119.296 10.9926V25.8641H119.27ZM105.587 18.4411C105.587 19.1322 105.718 19.7721 105.954 20.3864C106.189 21.0008 106.529 21.5383 106.974 21.999C107.419 22.4598 107.916 22.8181 108.518 23.0997C109.119 23.3812 109.747 23.5092 110.454 23.5092C111.16 23.5092 111.84 23.3812 112.442 23.0997C113.07 22.8181 113.593 22.4598 114.064 21.999C114.509 21.5383 114.875 21.0008 115.137 20.3864C115.398 19.7721 115.529 19.1322 115.529 18.4411C115.529 17.75 115.398 17.1101 115.137 16.4958C114.875 15.8815 114.509 15.344 114.064 14.8832C113.619 14.4225 113.07 14.0386 112.442 13.7826C111.814 13.501 111.16 13.3731 110.454 13.3731C109.747 13.3731 109.093 13.501 108.518 13.7826C107.942 14.0642 107.419 14.4225 106.974 14.8832C106.529 15.344 106.189 15.8815 105.954 16.4958C105.692 17.1101 105.587 17.75 105.587 18.4411Z" fill="#5A005A"/>
<path d="M128.745 26.6309C128.038 26.6309 127.41 26.5285 126.782 26.3238C126.181 26.119 125.631 25.8374 125.187 25.4535C124.742 25.0696 124.375 24.6088 124.114 24.0713C123.852 23.5338 123.721 22.8939 123.721 22.2028V20.0783V13.5H122.204C121.942 13.5 121.759 13.4488 121.628 13.3209C121.498 13.2185 121.445 13.0137 121.445 12.7577V10.9148C121.445 10.6588 121.498 10.4797 121.628 10.3773C121.759 10.2749 121.942 10.2237 122.204 10.2237H123.721C123.721 9.76296 123.721 9.32783 123.721 8.86709C123.721 8.40636 123.721 7.97122 123.721 7.51049C123.721 7.33132 123.774 7.20333 123.878 7.10095C123.983 6.99856 124.166 6.92177 124.375 6.84499C124.532 6.79379 124.716 6.7426 124.925 6.66581C125.134 6.58902 125.344 6.51223 125.579 6.46104C125.814 6.38425 126.024 6.33306 126.233 6.28187C126.442 6.23067 126.625 6.20508 126.756 6.20508C127.018 6.20508 127.201 6.28187 127.28 6.43544C127.358 6.58902 127.41 6.7682 127.41 7.02416C127.41 7.56168 127.41 8.0992 127.41 8.63673C127.41 9.17425 127.41 9.71177 127.41 10.2493H129.294C129.529 10.2493 129.686 10.3005 129.817 10.4285C129.948 10.5564 130 10.7356 130 10.966V12.7321C130 13.0137 129.948 13.1929 129.817 13.3209C129.686 13.4488 129.529 13.5 129.294 13.5H127.41C127.41 14.0631 127.41 14.5239 127.41 14.9078C127.41 15.2918 127.41 15.6245 127.41 15.9317C127.41 16.2388 127.41 16.4948 127.41 16.7764C127.41 17.0323 127.41 17.3139 127.41 17.621C127.41 17.9282 127.41 18.2609 127.41 18.6449C127.41 19.0288 127.41 19.5152 127.41 20.0527C127.41 20.0783 127.41 20.0783 127.41 20.1039C127.41 20.1295 127.41 20.1295 127.41 20.1551V21.8444C127.41 22.4075 127.515 22.8171 127.75 23.073C127.986 23.329 128.352 23.457 128.849 23.457C129.032 23.457 129.189 23.5338 129.294 23.6618C129.399 23.7897 129.451 23.9433 129.451 24.1225V25.9142C129.451 26.1446 129.399 26.3238 129.268 26.4262C129.137 26.5797 128.954 26.6309 128.745 26.6309Z" fill="#5A005A"/>
</svg>
