<svg width="20" height="20" viewBox="0 0 20 20" fill="none" xmlns="http://www.w3.org/2000/svg">
<g clip-path="url(#clip0_8454_77141)">
<path d="M9.97254 11.3588C9.93242 11.4123 6.10173 15.2785 4.21647 17.1648C3.90895 17.4725 3.55463 17.5796 3.14682 17.4391C2.49166 17.2117 2.2911 16.4023 2.7457 15.8805C2.78581 15.8337 2.82593 15.7936 2.86604 15.7535C4.73793 13.8805 8.5753 10.0544 8.64884 9.9942C8.58199 9.94068 4.71787 6.09449 2.83261 4.20818C2.37801 3.75333 2.39138 3.10449 2.86604 2.71653C3.22705 2.41552 3.76187 2.43559 4.12288 2.75666C4.17636 2.80349 4.22316 2.85031 4.26996 2.89713C6.13516 4.76337 9.93911 8.5895 9.97254 8.62963C9.99259 8.63632 13.9102 4.71655 15.8021 2.82355C16.1832 2.44228 16.718 2.39546 17.1125 2.69646C17.5537 3.0376 17.6272 3.63962 17.2863 4.0744C17.2395 4.1346 17.1793 4.18812 17.1258 4.24832C15.2539 6.12125 11.4099 9.94737 11.343 9.9942C11.4166 10.0544 15.2874 13.914 17.1793 15.807C17.6005 16.2284 17.6005 16.8304 17.1994 17.2317C16.845 17.5796 16.2033 17.5929 15.8155 17.1983C15.3609 16.7301 14.8929 16.2685 14.4316 15.807C12.9876 14.3688 10.0394 11.4256 9.97254 11.3588Z" fill="#818181"/>
</g>
<defs>
<clipPath id="clip0_8454_77141">
<rect width="15" height="15" fill="white" transform="translate(2.5 2.5)"/>
</clipPath>
</defs>
</svg>
