<svg width="24" height="24" viewBox="0 0 24 24" fill="none" xmlns="http://www.w3.org/2000/svg">
<g clip-path="url(#clip0_5991_129783)">
<path d="M15.63 14.46C15.285 14.115 13.8 12.63 13.1625 12C13.875 11.295 15.585 9.5925 15.615 9.5625C15.645 9.5325 15.6825 9.495 15.705 9.4575C15.8475 9.2775 15.9075 9.06 15.8775 8.8425C15.8475 8.625 15.735 8.4225 15.555 8.2875C15.225 8.03251 14.76 8.07 14.445 8.3775L14.0025 8.82C13.38 9.4425 12.435 10.3875 11.985 10.8375C11.3025 10.125 9.6 8.4225 9.57 8.4L9.495 8.325C9.1875 8.0475 8.7375 8.04 8.415 8.295C8.2275 8.445 8.1225 8.6625 8.1075 8.8875C8.1 9.135 8.19 9.3675 8.3775 9.5475C8.4 9.57 10.1175 11.295 10.8375 12C10.2225 12.6075 8.8275 14.0025 8.3925 14.4375L8.325 14.5125C8.1375 14.715 8.07 15 8.1375 15.27C8.205 15.5325 8.4075 15.75 8.67 15.84C8.7675 15.87 8.8575 15.885 8.955 15.885C9.1725 15.885 9.3825 15.795 9.555 15.615C9.645 15.525 11.295 13.8675 11.9925 13.1625C12.435 13.5975 13.3125 14.4825 13.815 14.9775L14.01 15.1725C14.16 15.3225 14.31 15.4725 14.46 15.63C14.6175 15.7875 14.8275 15.8775 15.0525 15.885H15.06C15.2775 15.885 15.4875 15.8025 15.6375 15.6525C15.8025 15.495 15.885 15.285 15.8925 15.0675C15.8925 14.8425 15.8025 14.625 15.63 14.46Z" fill="#CB1801"/>
<path fill-rule="evenodd" clip-rule="evenodd" d="M11.9925 3.00001C16.965 2.99251 21.0075 7.02751 21 12C21 16.98 16.9875 20.9925 12.0075 21C7.03501 21.0075 2.99251 16.9725 3.00001 11.9925C3.00751 7.02001 7.02001 3.00751 11.9925 3.00001ZM12.0075 4.79251C8.05501 4.78501 4.80751 8.0175 4.79251 11.9925C4.77751 15.945 8.01 19.185 11.985 19.215C15.93 19.245 19.2075 15.975 19.215 12.0075C19.215 8.04001 15.975 4.80001 12.0075 4.79251Z" fill="#CB1801"/>
</g>
<defs>
<clipPath id="clip0_5991_129783">
<rect width="18" height="18" fill="white" transform="translate(3 3)"/>
</clipPath>
</defs>
</svg>
