<svg width="24" height="24" viewBox="0 0 24 24" fill="none" xmlns="http://www.w3.org/2000/svg">
<g clip-path="url(#clip0_5971_168945)">
<path fill-rule="evenodd" clip-rule="evenodd" d="M11.9925 3.00001C16.965 2.99251 21.0075 7.02751 21 12C21 16.98 16.9875 20.9925 12.0075 21C7.03501 21.0075 2.99251 16.9725 3.00001 11.9925C3.00751 7.02001 7.02001 3.00751 11.9925 3.00001ZM12.0075 4.79251C8.05501 4.78501 4.80751 8.0175 4.79251 11.9925C4.77751 15.945 8.01 19.185 11.985 19.215C15.93 19.245 19.2075 15.975 19.215 12.0075C19.215 8.04001 15.975 4.80001 12.0075 4.79251Z" fill="#57C22D"/>
<path d="M17.43 8.73748C17.3325 8.40748 17.0925 8.15248 16.7775 8.06248C16.365 7.93498 15.9975 8.03248 15.675 8.35498L10.515 13.515C9.78749 12.78 9.05249 12.0525 8.32499 11.325C7.97249 10.9725 7.50749 10.8825 7.10999 11.0775C6.79499 11.235 6.585 11.505 6.5325 11.835C6.4875 12.1575 6.59999 12.495 6.85499 12.75C7.82999 13.725 8.79749 14.7 9.77999 15.6675C9.89999 15.7875 10.0425 15.8775 10.1925 15.93C10.29 15.9675 10.41 15.99 10.5375 15.99C10.77 15.99 11.04 15.9075 11.3025 15.6375L17.0775 9.86248C17.1375 9.80248 17.1975 9.73498 17.2575 9.66748C17.4675 9.41248 17.5275 9.06748 17.43 8.73748Z" fill="#57C22D"/>
</g>
<defs>
<clipPath id="clip0_5971_168945">
<rect width="18" height="18" fill="white" transform="translate(3 3)"/>
</clipPath>
</defs>
</svg>
