<svg width="24" height="24" viewBox="0 0 24 24" fill="none" xmlns="http://www.w3.org/2000/svg">
<g clip-path="url(#clip0_5991_129807)">
<path fill-rule="evenodd" clip-rule="evenodd" d="M11.9925 3.00001C16.965 2.99251 21.0075 7.02751 21 12C21 16.98 16.9875 20.9925 12.0075 21C7.03501 21.0075 2.99251 16.9725 3.00001 11.9925C3.00751 7.02001 7.02001 3.00751 11.9925 3.00001ZM12.0075 4.79251C8.05501 4.78501 4.80751 8.0175 4.79251 11.9925C4.77751 15.945 8.01 19.185 11.985 19.215C15.93 19.245 19.2075 15.975 19.215 12.0075C19.215 8.04001 15.975 4.80001 12.0075 4.79251Z" fill="#F8AC30"/>
<path d="M13.2838 8.7037C13.2088 9.9487 13.1338 11.1787 13.0588 12.4012C13.0438 12.6412 13.0513 12.8887 13.0363 13.1287C13.0213 13.4512 12.8938 13.7137 12.5863 13.8562C12.3013 13.9837 12.0388 13.9462 11.7913 13.7587C11.5888 13.6012 11.5213 13.3762 11.5063 13.1362C11.4388 11.9287 11.3713 10.7212 11.3038 9.5137C11.2813 9.1537 11.2213 8.7787 11.2663 8.42621C11.3338 7.82621 11.8063 7.45871 12.3388 7.50371C12.9163 7.54121 13.2838 7.96871 13.2838 8.5837C13.2838 8.62871 13.2838 8.6737 13.2838 8.7037Z" fill="#F8AC30"/>
<path d="M11.2738 15.6337C11.2738 15.0787 11.7313 14.6212 12.2863 14.6212C12.8413 14.6212 13.2763 15.0787 13.2688 15.6562C13.2613 16.1962 12.8113 16.6387 12.2713 16.6387C11.7238 16.6312 11.2738 16.1887 11.2738 15.6337Z" fill="#F8AC30"/>
</g>
<defs>
<clipPath id="clip0_5991_129807">
<rect width="18" height="18" fill="white" transform="translate(3 3)"/>
</clipPath>
</defs>
</svg>
