<svg width="20" height="20" viewBox="0 0 20 20" fill="none" xmlns="http://www.w3.org/2000/svg">
<path d="M10.8098 1.86955C9.97646 1.02954 8.92414 0.440248 7.77249 0.168715C6.62085 -0.102818 5.41611 -0.0456956 4.29532 0.333584C3.17453 0.712864 2.18269 1.39908 1.4326 2.31416C0.682511 3.22925 0.204295 4.33648 0.0523472 5.50991C-0.0996009 6.68334 0.0808187 7.87585 0.573083 8.95182C1.06535 10.0278 1.8497 10.944 2.83691 11.5962C3.82413 12.2485 4.97458 12.6106 6.1574 12.6413C7.34022 12.6721 8.50794 12.3703 9.52772 11.7702L10.7558 12.9975C10.718 13.3636 10.7625 13.7336 10.8862 14.0803C11.0099 14.427 11.2095 14.7416 11.4706 15.0011L15.7365 19.2678C16.205 19.7362 16.8403 19.9992 17.5027 19.9991C18.1651 19.9991 18.8003 19.7358 19.2687 19.2674C19.737 18.7989 20.0001 18.1636 20 17.5012C19.9999 16.8388 19.7367 16.2036 19.2683 15.7352L15.0023 11.4693C14.743 11.2083 14.4285 11.0087 14.082 10.885C13.7354 10.7613 13.3656 10.7167 12.9996 10.7545L11.7715 9.52644C12.4803 8.3234 12.7703 6.91939 12.5963 5.534C12.4223 4.1486 11.794 2.85994 10.8098 1.86955ZM3.07533 9.60398C2.42957 8.95823 1.9898 8.13549 1.81163 7.2398C1.63346 6.34411 1.72489 5.4157 2.07437 4.57198C2.42385 3.72826 3.01567 3.00711 3.775 2.49974C4.53433 1.99237 5.42706 1.72157 6.3403 1.72157C7.25354 1.72157 8.14627 1.99237 8.9056 2.49974C9.66492 3.00711 10.2567 3.72826 10.6062 4.57198C10.9557 5.4157 11.0471 6.34411 10.869 7.2398C10.6908 8.13549 10.251 8.95823 9.60527 9.60398C8.73868 10.4687 7.56449 10.9543 6.3403 10.9543C5.11611 10.9543 3.94192 10.4687 3.07533 9.60398V9.60398ZM11.0374 10.5809L12.59 12.1327L12.9372 12.0484C13.1433 11.995 13.3597 11.9962 13.5652 12.0519C13.7707 12.1076 13.958 12.2159 14.1089 12.3662L18.3748 16.6321C18.5986 16.865 18.7222 17.1764 18.719 17.4994C18.7158 17.8224 18.586 18.1313 18.3576 18.3597C18.1292 18.5881 17.8203 18.7179 17.4973 18.7211C17.1743 18.7243 16.8629 18.6007 16.63 18.3769L12.3641 14.111C12.2138 13.9602 12.1055 13.7728 12.0499 13.5673C11.9943 13.3618 11.9934 13.1453 12.0471 12.9393L12.1314 12.5912L10.5797 11.0394L11.0374 10.5809Z" fill="white"/>
</svg>
