<svg width="24" height="24" viewBox="0 0 24 24" fill="none" xmlns="http://www.w3.org/2000/svg">
<g clip-path="url(#clip0_5991_129723)">
<path d="M12.731 14.6373C12.6598 14.6373 12.5981 14.6193 12.5744 14.5894C12.5554 14.5655 12.5459 14.5236 12.5459 14.4638C12.5459 14.3681 12.5506 14.2245 12.5791 14.0989C12.693 13.5605 12.8117 13.028 12.9304 12.4956C13.0253 12.0828 13.0443 11.7478 13.0063 11.4248C12.9399 10.9342 12.5411 10.5394 12.0759 10.5035C11.6582 10.4736 11.2927 10.6411 10.9367 10.8026L10.8085 10.8624C10.7516 10.8864 10.6709 10.9581 10.6424 11.0718C10.6187 11.1675 10.5997 11.2632 10.5854 11.359L10.5 11.7897L10.7753 11.7179C10.8275 11.7059 10.875 11.688 10.9225 11.676C11.0127 11.6461 11.1028 11.6222 11.1978 11.6162C11.2975 11.6102 11.3734 11.6222 11.4066 11.6641C11.4399 11.7059 11.4351 11.8017 11.4304 11.8495C11.4066 12.0948 11.3639 12.3401 11.3117 12.5913C11.2737 12.7887 11.2263 12.9862 11.1788 13.1776C11.0791 13.5844 10.9747 14.0091 10.9509 14.4578C10.932 14.8885 11.0601 15.2295 11.3307 15.4748C11.5396 15.6603 11.7722 15.75 12.0427 15.75C12.1566 15.75 12.2753 15.7321 12.3987 15.7021C12.6028 15.6543 12.7927 15.5645 12.9826 15.4808C13.0538 15.4509 13.125 15.415 13.1962 15.3851C13.2722 15.3492 13.3434 15.2654 13.3671 15.1697C13.3861 15.086 13.4051 15.0022 13.4193 14.9185L13.5 14.5176L13.068 14.5834C12.9541 14.6193 12.8449 14.6373 12.731 14.6373Z" fill="#0068BE"/>
<path d="M12.375 9.75C12.9963 9.75 13.5 9.24632 13.5 8.625C13.5 8.00368 12.9963 7.5 12.375 7.5C11.7537 7.5 11.25 8.00368 11.25 8.625C11.25 9.24632 11.7537 9.75 12.375 9.75Z" fill="#0068BE"/>
<path fill-rule="evenodd" clip-rule="evenodd" d="M11.9928 3.00001C16.9678 2.99275 21.0073 7.0266 21 12.0036C20.9928 16.9806 16.9823 20.9927 12.0073 21C7.03949 21.0145 2.99276 16.9734 3.00001 11.9964C3.00726 7.0266 7.01774 3.00726 11.9928 3.00001ZM12.0073 4.79202C8.0548 4.78477 4.80581 8.02055 4.79131 11.9891C4.7768 15.9431 8.00404 19.1862 11.9855 19.2152C15.9307 19.2442 19.2087 15.9722 19.2087 12.0036C19.2087 8.04232 15.9742 4.79928 12.0073 4.79202Z" fill="#0068BE"/>
</g>
<defs>
<clipPath id="clip0_5991_129723">
<rect width="18" height="18" fill="white" transform="translate(3 3)"/>
</clipPath>
</defs>
</svg>
