<svg width="29" height="29" viewBox="0 0 29 29" fill="none" xmlns="http://www.w3.org/2000/svg">
<path d="M27.5799 24.3443C28.009 24.7734 28.25 25.3553 28.25 25.9621C28.25 26.5689 28.009 27.1508 27.5799 27.5799C27.1508 28.009 26.5689 28.25 25.9621 28.25C25.3553 28.25 24.7734 28.009 24.3443 27.5799L14.5 17.7356L4.65566 27.5799C4.2266 28.009 3.64467 28.25 3.03788 28.25C2.4311 28.25 1.84917 28.009 1.4201 27.5799C0.991044 27.1508 0.75 26.5689 0.75 25.9621C0.75 25.3553 0.991044 24.7734 1.4201 24.3443L11.2644 14.5L1.4201 4.65566C0.991044 4.2266 0.75 3.64467 0.75 3.03788C0.75 2.4311 0.991044 1.84917 1.4201 1.4201C1.84917 0.991044 2.4311 0.75 3.03788 0.75C3.64467 0.75 4.2266 0.991044 4.65566 1.4201L14.5 11.2644L24.3443 1.4201C24.7734 0.991044 25.3553 0.75 25.9621 0.75C26.5689 0.75 27.1508 0.991044 27.5799 1.4201C28.009 1.84917 28.25 2.4311 28.25 3.03788C28.25 3.64467 28.009 4.2266 27.5799 4.65566L17.7356 14.5L27.5799 24.3443Z" fill="#9B3789"/>
</svg>
