<svg width="20" height="19" viewBox="0 0 20 19" fill="none" xmlns="http://www.w3.org/2000/svg">
<path fill-rule="evenodd" clip-rule="evenodd" d="M16.1566 7.94401L15.1147 9.10809C15.0902 9.13632 15.0727 9.17124 15.0639 9.20941C15.055 9.24757 15.0552 9.28768 15.0643 9.32577L15.5852 11.512C15.6298 11.7081 15.6364 11.9127 15.6045 12.112C15.5726 12.3112 15.503 12.5003 15.4004 12.6666C15.1987 12.9814 14.9261 13.2297 14.6106 13.3858C14.4152 13.4818 14.2087 13.5455 13.9972 13.5751L13.5015 13.6414L6.14102 12.5341L6.98125 16.0831C7.12016 16.6766 7.04537 17.3079 6.77314 17.8396C6.50092 18.3713 6.05329 18.7605 5.52765 18.9223C5.39854 18.9621 5.26626 18.9874 5.13274 18.998H4.9815C4.52414 19 4.0789 18.8324 3.71447 18.5211C3.35004 18.2098 3.08666 17.7722 2.96494 17.2756L2.02388 13.5846C1.86373 13.5669 1.70587 13.5288 1.55335 13.471C1.35603 13.4011 1.17661 13.2785 1.03033 13.1137C0.884054 12.949 0.775237 12.7469 0.713122 12.5246L0.0241316 9.60969C-0.0119336 9.38203 -0.0073803 9.14856 0.0375259 8.92291C0.0824321 8.69725 0.166792 8.48393 0.285681 8.2954C0.404571 8.10686 0.555609 7.94689 0.729981 7.82481C0.904352 7.70274 1.09856 7.621 1.30128 7.58438L4.66221 6.58119H4.72943L10.1573 1.84916L10.5858 1.48006L10.7959 1.30025L11.0312 1.18668C11.2887 1.06222 11.566 0.998047 11.8462 0.998047C12.1264 0.998047 12.4037 1.06222 12.6612 1.18668C12.8213 1.27383 12.9632 1.39816 13.0776 1.55148C13.192 1.70481 13.2763 1.88366 13.325 2.0763L13.93 4.53695C13.9313 4.57675 13.9433 4.61517 13.9642 4.64724C13.9852 4.6793 14.0143 4.70352 14.0476 4.71677L15.4004 5.03855C15.5197 5.06911 15.6295 5.13535 15.7182 5.23028C15.8069 5.32522 15.8713 5.44534 15.9045 5.578L16.333 7.21528C16.362 7.34357 16.3609 7.47812 16.33 7.60582C16.2991 7.73353 16.2393 7.85004 16.1566 7.94401ZM1.95666 12.2786C2.12075 12.3367 2.29672 12.3367 2.4608 12.2786L5.24197 11.4457C5.26813 11.4381 5.29266 11.4246 5.3141 11.406C5.33555 11.3875 5.35346 11.3643 5.36679 11.3378C5.38011 11.3113 5.38857 11.2821 5.39167 11.2519C5.39477 11.2216 5.39243 11.191 5.38481 11.1618L4.67902 8.16169C4.67223 8.13222 4.66025 8.10459 4.6438 8.08044C4.62735 8.05629 4.60675 8.03611 4.58324 8.0211C4.55972 8.00609 4.53377 7.99656 4.50692 7.99307C4.48007 7.98958 4.45288 7.99221 4.42695 8.0008L1.62057 8.8431C1.25087 8.95667 1.12484 9.26898 1.12484 9.26898L1.83903 12.1934C1.87308 12.2299 1.913 12.2588 1.95666 12.2786ZM5.05712 17.6825H5.20836C5.44727 17.6073 5.65015 17.4289 5.77288 17.1861C5.89561 16.9433 5.92827 16.6557 5.86374 16.386L5.08233 13.0925C5.07554 13.063 5.06357 13.0354 5.04711 13.0112C5.03066 12.9871 5.01006 12.9669 4.98655 12.9519C4.96304 12.9369 4.93708 12.9273 4.91023 12.9238C4.88339 12.9204 4.85619 12.923 4.83026 12.9316L3.35985 13.3764C3.30823 13.394 3.26461 13.4333 3.23802 13.4862C3.21143 13.539 3.20391 13.6014 3.21701 13.6603L4.05724 16.9349C4.12199 17.1701 4.25683 17.373 4.439 17.5092C4.62118 17.6454 4.83951 17.7066 5.05712 17.6825ZM5.7209 7.54652L6.56114 11.1618C6.5761 11.2148 6.6055 11.2612 6.64516 11.2943L12.7789 12.2407C12.8124 12.2456 12.8466 12.241 12.8782 12.2271C12.9097 12.2133 12.9377 12.1907 12.9595 12.1614C12.9812 12.1322 12.9961 12.0972 13.0027 12.0598C13.0093 12.0224 13.0075 11.9837 12.9973 11.9473L10.8631 2.95646V2.83342L5.78812 7.30992C5.75583 7.33599 5.73186 7.37308 5.71975 7.41569C5.70765 7.45831 5.70805 7.50419 5.7209 7.54652ZM14.3081 12.0987C14.3595 12.0527 14.4048 11.9985 14.4425 11.9378V11.9189C14.4549 11.9057 14.4645 11.8894 14.4703 11.8714C14.4761 11.8533 14.4781 11.8339 14.4761 11.8148L12.2243 2.40754C12.2243 2.38861 12.1571 2.34129 12.1571 2.34129C12.096 2.31009 12.0306 2.29089 11.9638 2.28451L14.3081 12.0987ZM14.913 6.22156L14.3081 6.0796L14.703 7.74527L15.1567 7.24367L14.913 6.22156ZM16.3293 5.43779C16.3971 5.46865 16.4696 5.48412 16.5427 5.48329C16.621 5.48126 16.6981 5.46085 16.769 5.42337C16.8399 5.38589 16.903 5.33216 16.9545 5.26562L18.072 3.96904C18.1756 3.84354 18.2307 3.67681 18.2252 3.50554C18.2197 3.33427 18.154 3.17248 18.0426 3.05576C17.9311 2.93904 17.7831 2.87696 17.6311 2.88318C17.479 2.88939 17.3354 2.96338 17.2317 3.08889L16.1478 4.35707C16.0898 4.41734 16.0435 4.4905 16.0118 4.57194C15.9801 4.65339 15.9637 4.74135 15.9637 4.83027C15.9637 4.91919 15.9801 5.00715 16.0118 5.0886C16.0435 5.17004 16.0898 5.24321 16.1478 5.30347C16.1999 5.36128 16.2616 5.40693 16.3293 5.43779ZM18.6351 9.1934C18.5628 9.19602 18.4909 9.17983 18.4251 9.14608L16.8623 8.42681C16.7237 8.3618 16.6134 8.238 16.5553 8.08217C16.4971 7.92633 16.4957 7.75096 16.5514 7.59397C16.579 7.51473 16.6205 7.44256 16.6734 7.38177C16.7263 7.32098 16.7895 7.27281 16.8593 7.24014C16.9291 7.20746 17.004 7.19094 17.0796 7.19157C17.1551 7.1922 17.2298 7.20996 17.2992 7.2438L18.8536 7.96307C18.9229 7.99424 18.986 8.04063 19.0393 8.09954C19.0926 8.15844 19.1349 8.22869 19.1638 8.30619C19.1927 8.38369 19.2077 8.4669 19.2078 8.55097C19.2079 8.63505 19.1932 8.7183 19.1645 8.79591C19.1212 8.9138 19.0477 9.01454 18.9535 9.08531C18.8592 9.15609 18.7484 9.19371 18.6351 9.1934ZM16.7458 6.75082C16.8443 6.83622 16.965 6.88307 17.0893 6.88425C17.1408 6.884 17.1918 6.87441 17.2406 6.85586L19.6184 6.14606C19.7542 6.09227 19.8669 5.98276 19.9341 5.83941C20.0013 5.69607 20.0179 5.52945 19.9808 5.37285C19.9436 5.21626 19.8554 5.08121 19.7337 4.99471C19.612 4.90821 19.4658 4.87663 19.3243 4.90626L16.9465 5.62553C16.8737 5.64638 16.8054 5.6834 16.7456 5.73442C16.6857 5.78543 16.6355 5.84942 16.5979 5.92261C16.5604 5.9958 16.5362 6.07672 16.5267 6.1606C16.5173 6.24448 16.5229 6.32963 16.5432 6.41105C16.5761 6.54612 16.6472 6.66542 16.7458 6.75082Z" fill="#A28A9F"/>
</svg>
