<svg width="12" height="12" viewBox="0 0 12 12" fill="none" xmlns="http://www.w3.org/2000/svg">
<path d="M11.7076 10.2957C11.8948 10.4829 12 10.7369 12 11.0017C12 11.2664 11.8948 11.5204 11.7076 11.7076C11.5204 11.8948 11.2664 12 11.0017 12C10.7369 12 10.4829 11.8948 10.2957 11.7076L6 7.41188L1.70429 11.7076C1.51706 11.8948 1.26313 12 0.998348 12C0.73357 12 0.479636 11.8948 0.292409 11.7076C0.105183 11.5204 0 11.2664 0 11.0017C0 10.7369 0.105183 10.4829 0.292409 10.2957L4.58812 6L0.292409 1.70429C0.105183 1.51706 0 1.26313 0 0.998348C0 0.73357 0.105183 0.479636 0.292409 0.292409C0.479636 0.105183 0.73357 0 0.998348 0C1.26313 0 1.51706 0.105183 1.70429 0.292409L6 4.58812L10.2957 0.292409C10.4829 0.105183 10.7369 0 11.0017 0C11.2664 0 11.5204 0.105183 11.7076 0.292409C11.8948 0.479636 12 0.73357 12 0.998348C12 1.26313 11.8948 1.51706 11.7076 1.70429L7.41188 6L11.7076 10.2957Z" fill="#666666"/>
</svg>
