<svg width="20" height="20" viewBox="0 0 20 20" fill="none" xmlns="http://www.w3.org/2000/svg">
<path d="M19.8624 5.1284C19.8401 5.07413 19.8113 5.02275 19.7764 4.97538C19.7111 4.88916 19.6213 4.82406 19.5185 4.78835L10.2666 0.0702187C10.167 0.0239753 10.0584 0 9.94841 0C9.83843 0 9.7298 0.0239753 9.63027 0.0702187L0.412726 4.76285C0.330129 4.79017 0.254403 4.83465 0.190631 4.8933C0.12686 4.95195 0.0765198 5.02342 0.0429923 5.10289C0.0253984 5.13841 0.0110118 5.17539 0 5.21341V5.30692V14.8537C0.00195533 14.9798 0.0380846 15.1032 0.104625 15.2108C0.171165 15.3185 0.265682 15.4065 0.378332 15.4658L8.84781 19.7164C9.21339 19.9027 9.61876 20 10.0301 20C10.4414 20 10.8468 19.9027 11.2124 19.7164L19.6475 15.4658C19.7524 15.4021 19.8396 15.3136 19.9012 15.2082C19.9627 15.1028 19.9967 14.9839 20 14.8622V5.40893C19.988 5.30261 19.9394 5.20359 19.8624 5.1284ZM9.93981 1.48141L17.6784 5.43444L15.7524 6.40357L8.01376 2.44204L9.93981 1.48141ZM13.7059 8.54586L14.712 8.02729L15.374 7.69574V8.8944L14.8323 8.65637C14.7738 8.62983 14.7078 8.62378 14.6453 8.63923C14.5828 8.65468 14.5274 8.69071 14.4884 8.74138L13.7317 9.668V8.52035L13.7059 8.54586ZM6.43164 3.24114L14.239 7.17717L13.4222 7.59373L5.63199 3.6322L6.43164 3.24114ZM9.25194 18.4837L1.32416 14.4286V6.58209L9.25194 10.5861V18.4837ZM9.93981 9.37897L2.13242 5.40893L4.11866 4.4058L11.9089 8.36733L9.93981 9.37897ZM18.5383 14.4797L10.6277 18.4837V10.5776L12.7429 9.51499V10.4926C12.7429 10.673 12.8154 10.846 12.9444 10.9735C13.0734 11.1011 13.2483 11.1727 13.4308 11.1727C13.5384 11.1724 13.6445 11.1468 13.7401 11.098C13.8358 11.0493 13.9184 10.9787 13.9811 10.8922L14.9183 9.76152L15.3998 9.95704C15.5648 10.0253 15.7498 10.029 15.9174 9.96743C16.085 9.90587 16.2227 9.78365 16.3027 9.6255C16.3402 9.53379 16.3577 9.43532 16.3543 9.33646V7.63623L18.5469 6.58209L18.5383 14.4797Z" fill="white"/>
</svg>
