<svg width="32" height="32" viewBox="0 0 32 32" fill="none" xmlns="http://www.w3.org/2000/svg">
<circle cx="16" cy="16" r="16" fill="#CB1801"/>
<path d="M23.6127 21.73C23.8731 21.9904 24 22.3309 24 22.6714C24 23.0119 23.8731 23.3524 23.6127 23.6128C23.0918 24.1335 22.2504 24.1335 21.7295 23.6128L16 17.8844L10.2705 23.6128C9.74958 24.1335 8.90818 24.1335 8.38731 23.6128C8.12688 23.3524 8 23.0119 8 22.6714C8 22.3309 8.12688 21.9904 8.38731 21.73L14.1169 16.0017L8.38731 10.2733C8.12688 10.0129 8 9.67244 8 9.33194C8 8.99145 8.12688 8.65095 8.38731 8.39057C8.90818 7.86981 9.74958 7.86981 10.2705 8.39057L16 14.1189L21.7295 8.39057C22.2504 7.86981 23.0918 7.86981 23.6127 8.39057C23.8731 8.65095 24 8.99145 24 9.33194C24 9.67244 23.8731 10.0129 23.6127 10.2733L17.8831 16.0017L23.6127 21.73Z" fill="white"/>
</svg>
