<svg width="17" height="17" viewBox="0 0 17 17" fill="none" xmlns="http://www.w3.org/2000/svg">
<path d="M11.0173 11.8568L15.7981 16.6389C15.8534 16.6941 15.9189 16.7379 15.991 16.7678C16.0631 16.7976 16.1405 16.813 16.2185 16.813C16.2966 16.813 16.3739 16.7976 16.446 16.7678C16.5182 16.7379 16.5837 16.6941 16.6389 16.6389C16.6941 16.5837 16.7379 16.5182 16.7678 16.446C16.7976 16.3739 16.813 16.2966 16.813 16.2185C16.813 16.1405 16.7976 16.0631 16.7678 15.991C16.7379 15.9189 16.6941 15.8534 16.6389 15.7981L1.2014 0.360649C1.14619 0.305444 1.08066 0.261653 1.00853 0.231777C0.936401 0.201901 0.859094 0.186523 0.781024 0.186523C0.702953 0.186523 0.625646 0.201901 0.553518 0.231777C0.48139 0.261653 0.415853 0.305444 0.360649 0.360649C0.305444 0.415853 0.261653 0.48139 0.231777 0.553518C0.201901 0.625646 0.186523 0.702953 0.186523 0.781024C0.186523 0.859094 0.201901 0.936401 0.231777 1.00853C0.261653 1.08066 0.305444 1.14619 0.360649 1.2014L4.19627 5.03702C3.67423 5.40684 3.20449 5.84542 2.79977 6.3409C2.22669 7.04409 1.77807 7.8401 1.47334 8.69452C1.4484 8.76696 1.41752 8.86671 1.41752 8.86671L1.39615 8.94034C1.39615 8.94034 1.3059 9.53052 1.81771 9.6659C1.96982 9.7061 2.13168 9.68429 2.26772 9.60525C2.40376 9.52621 2.50287 9.3964 2.54327 9.24434L2.54446 9.24077L2.55396 9.21109L2.59552 9.08165C2.85435 8.36027 3.23381 7.68809 3.71771 7.09377C4.09812 6.62621 4.54832 6.22007 5.05246 5.88965L6.92634 7.76352C6.54819 8.00053 6.22835 8.31975 5.99059 8.69742C5.75284 9.0751 5.60329 9.50151 5.55307 9.94496C5.50285 10.3884 5.55326 10.8375 5.70054 11.2587C5.84781 11.68 6.08818 12.0627 6.40374 12.3782C6.71931 12.6938 7.10196 12.9342 7.52324 13.0814C7.94452 13.2287 8.39358 13.2791 8.83703 13.2289C9.28047 13.1787 9.70689 13.0291 10.0846 12.7914C10.4622 12.5536 10.7815 12.2338 11.0185 11.8556L11.0173 11.8568ZM6.50477 3.98609L7.5189 5.00021C7.84414 4.95796 8.1718 4.93693 8.49977 4.93727C10.927 4.93727 12.4019 6.02027 13.283 7.09496C13.767 7.68921 14.1465 8.36141 14.4052 9.08284C14.4254 9.13984 14.4385 9.18377 14.4468 9.21227L14.4563 9.24196V9.24552L14.4575 9.24671C14.5014 9.39491 14.6014 9.52013 14.7362 9.59576C14.871 9.67139 15.03 9.69147 15.1794 9.65173C15.3288 9.61199 15.4567 9.51556 15.5361 9.38294C15.6155 9.25032 15.6401 9.09196 15.6046 8.94152V8.93796L15.6034 8.93321L15.5986 8.91777C15.5781 8.84277 15.5543 8.76868 15.5274 8.69571C15.2227 7.84129 14.774 7.04527 14.201 6.34209C13.137 5.04177 11.345 3.74977 8.50215 3.74977C7.76827 3.74977 7.10446 3.83527 6.50596 3.98609H6.50477Z" fill="#818181"/>
</svg>
